<?xml version="1.0" standalone="no"?><!DOCTYPE svg PUBLIC "-//W3C//DTD SVG 1.1//EN" "http://www.w3.org/Graphics/SVG/1.1/DTD/svg11.dtd"><svg t="1618406668499" class="icon" viewBox="0 0 1024 1024" version="1.1" xmlns="http://www.w3.org/2000/svg" p-id="46367" xmlns:xlink="http://www.w3.org/1999/xlink" width="200" height="200"><defs><style type="text/css"></style></defs><path d="M517.76 245.888a342.656 342.656 0 0 1 342.784 342.656v316.224h116.992a44.032 44.032 0 0 1 0 88H44.032a44.032 44.032 0 0 1 0-88h130.944V588.544A342.656 342.656 0 0 1 517.76 245.888zM512 522.688a64 64 0 0 0-64 64v256l0.448 7.424A64 64 0 0 0 576 842.688v-256l-0.448-7.488A64 64 0 0 0 512 522.688zM512 352a64 64 0 1 0 0 128 64 64 0 0 0 0-128z m289.856-273.792a33.408 33.408 0 0 1 12.16 45.504l-60.8 105.6-57.472-33.216 60.8-105.6a33.088 33.088 0 0 1 45.12-12.288h0.192zM517.696 0c19.84 0 35.904 14.976 35.904 33.536v119.68H481.664V33.408c0-18.432 16.128-33.408 35.968-33.408zM233.6 78.208a33.152 33.152 0 0 1 45.312 12.16l60.8 105.6-57.472 33.28-60.8-105.6a33.28 33.28 0 0 1 12.16-45.44zM25.6 286.976a33.088 33.088 0 0 1 45.312-12.16l105.28 61.056-33.152 57.6-105.28-61.12a33.28 33.28 0 0 1-12.16-45.376z m984.128 0a33.408 33.408 0 0 1-12.16 45.44l-105.28 60.992-33.152-57.6 105.28-61.056a33.152 33.152 0 0 1 45.248 12.032l0.064 0.192z" p-id="46368"></path></svg>