<?xml version="1.0" standalone="no"?><!DOCTYPE svg PUBLIC "-//W3C//DTD SVG 1.1//EN" "http://www.w3.org/Graphics/SVG/1.1/DTD/svg11.dtd"><svg t="1618105746646" class="icon" viewBox="0 0 1024 1024" version="1.1" xmlns="http://www.w3.org/2000/svg" p-id="11367" xmlns:xlink="http://www.w3.org/1999/xlink" width="200" height="200"><defs><style type="text/css"></style></defs><path d="M234.666667 635.733333h-128c-12.8 0-21.333333-8.533333-21.333334-21.333333v-384c0-12.8 8.533333-21.333333 21.333334-21.333333h128c25.6 0 42.666667-17.066667 42.666666-42.666667s-17.066667-42.666667-42.666666-42.666667h-128C46.933333 123.733333 0 170.666667 0 230.4v384c0 59.733333 46.933333 106.666667 106.666667 106.666667h128c25.6 0 42.666667-17.066667 42.666666-42.666667s-17.066667-42.666667-42.666666-42.666667zM661.333333 209.066667h128c12.8 0 21.333333 8.533333 21.333334 21.333333v183.466667h8.533333c25.6 0 51.2 4.266667 76.8 8.533333V230.4c0-59.733333-46.933333-106.666667-106.666667-106.666667h-128c-25.6 0-42.666667 17.066667-42.666666 42.666667s17.066667 42.666667 42.666666 42.666667zM614.4 401.066667c-8.533333-12.8-21.333333-21.333333-38.4-21.333334H388.266667l98.133333-196.266666c8.533333-21.333333 0-46.933333-17.066667-55.466667-21.333333-8.533333-46.933333 0-55.466666 17.066667l-128 256c-8.533333 12.8-4.266667 29.866667 0 42.666666 8.533333 12.8 21.333333 21.333333 38.4 21.333334H512l-98.133333 196.266666c-8.533333 21.333333 0 46.933333 17.066666 55.466667 4.266667 4.266667 12.8 4.266667 17.066667 4.266667 17.066667 0 29.866667-8.533333 38.4-25.6l128-256c8.533333-12.8 4.266667-29.866667 0-38.4zM981.333333 294.4h-42.666666v140.8c29.866667 12.8 59.733333 34.133333 85.333333 59.733333V337.066667c0-25.6-17.066667-42.666667-42.666667-42.666667zM819.2 494.933333c-110.933333 0-204.8 89.6-204.8 204.8s89.6 204.8 204.8 204.8S1024 810.666667 1024 699.733333s-89.6-204.8-204.8-204.8z m0 341.333334c-76.8 0-136.533333-64-136.533333-136.533334s64-136.533333 136.533333-136.533333 136.533333 64 136.533333 136.533333-59.733333 136.533333-136.533333 136.533334z" p-id="11368"></path><path d="M904.533333 614.4c-12.8-12.8-34.133333-12.8-46.933333 0l-38.4 38.4-38.4-38.4c-12.8-12.8-34.133333-12.8-46.933333 0-12.8 12.8-12.8 34.133333 0 46.933333l38.4 38.4-38.4 38.4c-12.8 12.8-12.8 34.133333 0 46.933334 4.266667 4.266667 12.8 8.533333 21.333333 8.533333s17.066667-4.266667 21.333333-8.533333l38.4-38.4 38.4 38.4c4.266667 4.266667 12.8 8.533333 21.333334 8.533333s17.066667-4.266667 21.333333-8.533333c12.8-12.8 12.8-34.133333 0-46.933334l-38.4-38.4 38.4-38.4c21.333333-12.8 21.333333-34.133333 8.533333-46.933333z" p-id="11369"></path></svg>