<?xml version="1.0" encoding="UTF-8" standalone="no"?>
<svg
   xmlns:dc="http://purl.org/dc/elements/1.1/"
   xmlns:cc="http://creativecommons.org/ns#"
   xmlns:rdf="http://www.w3.org/1999/02/22-rdf-syntax-ns#"
   xmlns:svg="http://www.w3.org/2000/svg"
   xmlns="http://www.w3.org/2000/svg"
   xmlns:sodipodi="http://sodipodi.sourceforge.net/DTD/sodipodi-0.dtd"
   xmlns:inkscape="http://www.inkscape.org/namespaces/inkscape"
   t="1618105750907"
   class="icon"
   viewBox="0 0 1024 1024"
   version="1.1"
   p-id="11506"
   width="200"
   height="200"
   id="svg10"
   sodipodi:docname="battery_warnning_white.svg"
   inkscape:version="1.0.2-2 (e86c870879, 2021-01-15)">
  <metadata
     id="metadata14">
    <rdf:RDF>
      <cc:Work
         rdf:about="">
        <dc:format>image/svg+xml</dc:format>
        <dc:type
           rdf:resource="http://purl.org/dc/dcmitype/StillImage" />
      </cc:Work>
    </rdf:RDF>
  </metadata>
  <sodipodi:namedview
     pagecolor="#ffffff"
     bordercolor="#666666"
     borderopacity="1"
     objecttolerance="10"
     gridtolerance="10"
     guidetolerance="10"
     inkscape:pageopacity="0"
     inkscape:pageshadow="2"
     inkscape:window-width="1920"
     inkscape:window-height="1017"
     id="namedview12"
     showgrid="false"
     inkscape:zoom="4.245"
     inkscape:cx="100"
     inkscape:cy="100"
     inkscape:window-x="-8"
     inkscape:window-y="-8"
     inkscape:window-maximized="1"
     inkscape:current-layer="svg10" />
  <defs
     id="defs4">
    <style
       type="text/css"
       id="style2" />
  </defs>
  <path
     d="M789.333333 810.666667h-128c-25.6 0-42.666667-17.066667-42.666666-42.666667s17.066667-42.666667 42.666666-42.666667h128c12.8 0 21.333333-8.533333 21.333334-21.333333v-384c0-12.8-8.533333-21.333333-21.333334-21.333333h-128c-25.6 0-42.666667-17.066667-42.666666-42.666667s17.066667-42.666667 42.666666-42.666667h128C849.066667 213.333333 896 260.266667 896 320v384c0 59.733333-46.933333 106.666667-106.666667 106.666667zM234.666667 810.666667h-128C46.933333 810.666667 0 763.733333 0 704v-384C0 260.266667 46.933333 213.333333 106.666667 213.333333h128c25.6 0 42.666667 17.066667 42.666666 42.666667s-17.066667 42.666667-42.666666 42.666667h-128c-12.8 0-21.333333 8.533333-21.333334 21.333333v384c0 12.8 8.533333 21.333333 21.333334 21.333333h128c25.6 0 42.666667 17.066667 42.666666 42.666667s-17.066667 42.666667-42.666666 42.666667zM981.333333 640h-42.666666V384h42.666666c25.6 0 42.666667 17.066667 42.666667 42.666667v170.666666c0 25.6-17.066667 42.666667-42.666667 42.666667z"
     p-id="11507"
     id="path6"
     style="fill:#ffffff" />
  <path
     d="M448 593.066667c-25.6 0-42.666667-17.066667-42.666667-42.666667V315.733333c0-25.6 17.066667-42.666667 42.666667-42.666666s42.666667 17.066667 42.666667 42.666666v234.666667c0 21.333333-17.066667 42.666667-42.666667 42.666667zM448 742.4c-25.6 0-42.666667-17.066667-42.666667-42.666667v-21.333333c0-25.6 17.066667-42.666667 42.666667-42.666667s42.666667 17.066667 42.666667 42.666667v21.333333c0 21.333333-17.066667 42.666667-42.666667 42.666667z"
     p-id="11508"
     id="path8"
     style="fill:#ffffff" />
</svg>
