<?xml version="1.0" standalone="no"?><!DOCTYPE svg PUBLIC "-//W3C//DTD SVG 1.1//EN" "http://www.w3.org/Graphics/SVG/1.1/DTD/svg11.dtd"><svg t="1618105155310" class="icon" viewBox="0 0 1024 1024" version="1.1" xmlns="http://www.w3.org/2000/svg" p-id="4273" xmlns:xlink="http://www.w3.org/1999/xlink" width="200" height="200"><defs><style type="text/css"></style></defs><path d="M280 287.2c-31.8 31.8-23.4 34.6-21.2 36.8 2.2 2.2 179.6 171.2 179.6 171.2s7.8 6.8 7.8 16.8l0 0c0 10-7.8 16.8-7.8 16.8s-177.4 169-179.6 171.2c-2.2 2.2-10.6 5 21.2 36.8 31.8 31.8 36.8 24.4 38.4 22.8l134.8-128.6c0.2-0.2 0.4-0.4 0.6-0.6 0.2-0.2 0.6-0.4 0.8-0.6 4.6-3.8 19.6-21.2 19.6-6.4 0 14.6 0 303.6 0 312.8l0 0.2 0 3.4c0 11 10.4 20.2 23.2 20.2 7 0 13.4-2.6 17.8-7l0 0c0 0 236.4-225.6 245.6-234.4 9.2-8.8 10-21.4 2-29.4l-167.8-160.6c0 0-8.8-8.6-8.8-16.6s8.8-16.6 8.8-16.6l167.8-160.6c8-8 7.2-20.8-2-29.4-9.2-8.8-245.6-234.4-245.6-234.4l0 0c-4.2-4.2-10.6-7-17.6-7-12.8 0-23.2 9.2-23.2 20.2l0 3.4L474.4 88c0 9.2 0 298.2 0 312.8 0 14.8-15-2.6-19.6-6.4-0.2-0.2-0.6-0.4-0.8-0.6-0.2-0.2-0.4-0.4-0.6-0.6l-134.8-128.6C316.6 262.8 311.8 255.4 280 287.2zM560 239.8c0-13.2 15 4.6 19.6 8.8l61 58.4c4.2 4 5.8 9.4 5.8 14.4 0 5-2 11.2-5.6 14.6-3.6 3.4-61.6 59-61.6 59-4.6 3.6-19.2 19.6-19.2 3.4C560 398.4 560 253 560 239.8zM560 625.6c0-16.4 14.4-0.4 19.2 3.4 0 0 58.2 55.6 61.8 59 3.6 3.4 5.6 9.8 5.6 14.6s-1.6 10.4-5.8 14.4l-61 58.4c-4.6 4.2-19.6 22-19.6 8.8C560 771 560 625.6 560 625.6z" p-id="4274"></path></svg>