<?xml version="1.0" standalone="no"?><!DOCTYPE svg PUBLIC "-//W3C//DTD SVG 1.1//EN" "http://www.w3.org/Graphics/SVG/1.1/DTD/svg11.dtd"><svg t="1618493270293" class="icon" viewBox="0 0 1024 1024" version="1.1" xmlns="http://www.w3.org/2000/svg" p-id="48070" xmlns:xlink="http://www.w3.org/1999/xlink" width="200" height="200"><defs><style type="text/css"></style></defs><path d="M519.168 53.76c-257.536 0-466.944 208.896-466.944 466.944 0 257.536 208.896 466.944 466.944 466.944 257.536 0 466.944-208.896 466.944-466.944 0-258.048-209.408-466.944-466.944-466.944z m-165.376 578.56c-25.088 25.088-58.88 37.376-101.376 37.376-41.984 0-75.264-11.776-99.328-35.84-24.576-24.064-36.864-56.32-36.864-97.792 0-42.496 12.8-75.776 37.888-99.84 25.088-24.064 59.392-36.352 101.888-36.352 41.472 0 74.24 11.776 98.304 35.84 24.576 23.552 36.352 55.808 36.352 95.744 0.512 42.496-11.776 75.776-36.864 100.864z m330.752 31.232h-74.752v-39.424h-1.024c-19.456 30.208-45.568 45.568-78.848 45.568-59.904 0-89.6-35.84-89.6-108.544V406.528h75.264v147.968c0 38.4 14.848 57.856 45.056 57.856 14.848 0 27.136-5.12 35.84-15.872s13.312-24.576 13.312-43.008V406.528h74.752v257.024z m193.024-51.712c8.192 0 16.896-2.56 26.112-7.68v56.32c-11.264 6.144-28.672 9.216-51.2 9.216-54.784 0-81.92-28.672-81.92-86.016V462.336h-42.496V406.528h42.496v-56.32l74.752-21.504v77.824h58.368v55.808h-58.368v108.544c0 27.136 10.752 40.96 32.256 40.96zM321.024 536.576c0 36.864-29.696 66.56-66.56 66.56s-66.56-29.696-66.56-66.56 29.696-66.56 66.56-66.56c36.352 0 66.56 30.208 66.56 66.56z" p-id="48071" fill="#2c2c2c"></path></svg>