<?xml version="1.0" standalone="no"?><!DOCTYPE svg PUBLIC "-//W3C//DTD SVG 1.1//EN" "http://www.w3.org/Graphics/SVG/1.1/DTD/svg11.dtd"><svg t="1618406562591" class="icon" viewBox="0 0 1224 1024" version="1.1" xmlns="http://www.w3.org/2000/svg" p-id="43446" xmlns:xlink="http://www.w3.org/1999/xlink" width="239.0625" height="200"><defs><style type="text/css"></style></defs><path d="M1066.496 674.304l149.504-149.504c11.776-11.776 11.776-30.72 0-41.984l-149.504-149.504c-11.776-11.776-30.72-11.776-41.984 0-11.776 11.776-11.776 30.72 0 41.984l98.304 98.304h-286.208c-16.384 0-29.696 13.312-29.696 29.696 0 16.384 13.312 29.696 29.696 29.696h286.208L1024 631.808c-5.632 5.632-8.704 13.312-8.704 20.992 0 7.68 3.072 15.36 8.704 20.992 11.776 12.288 30.72 12.288 42.496 0.512zM655.872 706.56c-12.288 0-24.064-7.168-29.184-19.456L481.28 346.112l-144.384 340.992c-6.656 16.384-25.6 23.552-41.472 16.896-16.384-6.656-23.552-25.6-16.896-41.472L446.464 266.24l1.024-1.536c7.168-12.288 19.968-19.968 34.304-19.968 13.824 0 27.136 7.68 34.304 19.968l1.024 1.536 0.512 1.536 168.448 394.752c6.656 16.384-0.512 34.816-16.896 41.984-4.608 1.536-9.216 2.048-13.312 2.048z m-307.2-175.616h257.024" p-id="43447"></path><path d="M348.672 499.2h257.024v63.488H348.672V499.2z" p-id="43448"></path><path d="M849.92 714.24c-17.92-13.824-43.52-10.24-57.344 7.68-76.8 99.328-200.704 159.744-335.872 150.016-207.872-15.36-368.128-195.072-358.912-402.944C107.008 250.368 294.4 82.944 510.976 97.28c121.344 8.192 226.304 71.168 291.328 163.328 11.776 16.384 33.28 22.528 51.2 13.824 22.528-10.752 30.72-39.424 16.384-59.904-78.336-111.104-203.776-187.392-349.696-198.656C264.192-3.072 37.376 190.464 16.896 446.976c-20.992 261.632 176.128 489.472 437.76 506.368 161.792 10.752 310.272-61.952 402.944-181.76 13.824-17.408 10.752-43.52-7.68-57.344z" p-id="43449"></path></svg>