<?xml version="1.0" standalone="no"?><!DOCTYPE svg PUBLIC "-//W3C//DTD SVG 1.1//EN" "http://www.w3.org/Graphics/SVG/1.1/DTD/svg11.dtd"><svg t="1618406052997" class="icon" viewBox="0 0 1024 1024" version="1.1" xmlns="http://www.w3.org/2000/svg" p-id="20439" xmlns:xlink="http://www.w3.org/1999/xlink" width="200" height="200"><defs><style type="text/css"></style></defs><path d="M968.533333 820.906667H96.426667V202.24H0v714.24h968.533333z" p-id="20440"></path><path d="M1016.32 331.946667l-126.293333-202.24c-4.266667-5.973333-9.386667-11.946667-16.213334-15.36-23.04-13.653333-52.053333-6.826667-65.706666 16.213333L617.813333 445.44l-100.693333-71.68c-19.626667-13.653333-46.08-11.946667-62.293333 5.973333L256 582.826667c-18.773333 18.773333-17.92 49.493333 0.853333 68.266666 9.386667 9.386667 21.333333 13.653333 33.28 13.653334 12.8 0 24.746667-5.12 34.133334-14.506667l170.666666-174.933333 109.226667 77.653333c0.853333 0.853333 1.706667 1.706667 2.56 1.706667 11.093333 6.826667 23.893333 8.533333 36.693333 5.973333 12.8-3.413333 23.04-11.093333 29.866667-22.186667l176.64-292.693333 85.333333 136.533333c6.826667 11.093333 17.066667 18.773333 29.866667 21.333334 12.8 2.56 25.6 0.853333 36.693333-5.973334 22.186667-12.8 29.013333-42.666667 14.506667-65.706666z" p-id="20441"></path></svg>