<?xml version="1.0" encoding="UTF-8" standalone="no"?>
<svg
   xmlns:dc="http://purl.org/dc/elements/1.1/"
   xmlns:cc="http://creativecommons.org/ns#"
   xmlns:rdf="http://www.w3.org/1999/02/22-rdf-syntax-ns#"
   xmlns:svg="http://www.w3.org/2000/svg"
   xmlns="http://www.w3.org/2000/svg"
   xmlns:sodipodi="http://sodipodi.sourceforge.net/DTD/sodipodi-0.dtd"
   xmlns:inkscape="http://www.inkscape.org/namespaces/inkscape"
   enable-background="new 0 0 50 50"
   height="50px"
   id="Layer_1"
   version="1.1"
   viewBox="0 0 50 50"
   width="50px"
   xml:space="preserve"
   sodipodi:docname="folder_white.svg"
   inkscape:version="1.0.2-2 (e86c870879, 2021-01-15)"><metadata
     id="metadata13"><rdf:RDF><cc:Work
         rdf:about=""><dc:format>image/svg+xml</dc:format><dc:type
           rdf:resource="http://purl.org/dc/dcmitype/StillImage" /><dc:title></dc:title></cc:Work></rdf:RDF></metadata><defs
     id="defs11" /><sodipodi:namedview
     pagecolor="#ffffff"
     bordercolor="#666666"
     borderopacity="1"
     objecttolerance="10"
     gridtolerance="10"
     guidetolerance="10"
     inkscape:pageopacity="0"
     inkscape:pageshadow="2"
     inkscape:window-width="1920"
     inkscape:window-height="1017"
     id="namedview9"
     showgrid="false"
     inkscape:zoom="8.49"
     inkscape:cx="12.550161"
     inkscape:cy="25.229996"
     inkscape:window-x="-8"
     inkscape:window-y="-8"
     inkscape:window-maximized="1"
     inkscape:current-layer="Layer_1"
     inkscape:document-rotation="0"
     inkscape:pagecheckerboard="true" /><rect
     fill="none"
     height="50"
     width="50"
     id="rect2" /><path
     d="m 44.670741,14.612151 v -3.878528 c 0,-1.0704738 -0.775054,-1.939264 -1.730031,-1.939264 0,0 -21.320903,0 -22.490404,0 -1.270708,0 -2.148699,-3.8785278 -3.460062,-3.8785278 H 7.4750726 c -0.9549771,0 -1.730031,0.8687902 -1.730031,1.9392639 v 3.8785279 28.119327 3.878527 c 0,1.070474 0.7750539,1.939264 1.730031,1.939264 H 41.210679 c 0.954977,0 1.730031,-0.86879 1.730031,-1.939264"
     fill="none"
     stroke="#000000"
     stroke-linecap="round"
     stroke-miterlimit="10"
     stroke-width="1.83166"
     id="path4"
     style="stroke:#ffffff;stroke-opacity:1" /><path
     d="m 6.3594979,42.739082 4.2952791,-25.50014 c 0,-1.042673 0.769714,-1.888901 1.718112,-1.888901 h 33.503176 c 0.948398,0 1.718112,0.846228 1.718112,1.888901 l -4.295279,25.50014"
     fill="none"
     stroke="#000000"
     stroke-linecap="round"
     stroke-miterlimit="10"
     stroke-width="1.80148"
     id="path6"
     style="stroke:#ffffff;stroke-opacity:1" /></svg>
