<?xml version="1.0" standalone="no"?><!DOCTYPE svg PUBLIC "-//W3C//DTD SVG 1.1//EN" "http://www.w3.org/Graphics/SVG/1.1/DTD/svg11.dtd"><svg t="1618110071751" class="icon" viewBox="0 0 1024 1024" version="1.1" xmlns="http://www.w3.org/2000/svg" p-id="9112" xmlns:xlink="http://www.w3.org/1999/xlink" width="200" height="200"><defs><style type="text/css"></style></defs><path d="M448 736c0 158.784 129.216 288 288 288s288-129.216 288-288S894.784 448 736 448 448 577.216 448 736zM512 736C512 612.48 612.48 512 736 512S960 612.48 960 736 859.52 960 736 960 512 859.52 512 736zM772.736 704l-42.112-42.112 45.248-45.248 119.36 119.36-119.36 119.36-45.248-45.248L772.736 768 576 768l0-64L772.736 704zM397.632 832c6.336 22.336 14.784 43.712 25.216 64L0 896l0-64L397.632 832zM384 736c0 10.816 0.64 21.44 1.6 32L64 768 64 279.04C64 138.24 173.888 0 314.688 0l256 0C711.488 0 832 138.24 832 279.04l0 118.592c-20.672-5.888-41.984-10.048-64-12.032L768 279.04C768 173.184 676.544 64 570.688 64l-256 0C208.832 64 128 173.184 128 279.04L128 704l128 0L256 320l64 0 0 384 65.6 0C384.64 714.56 384 725.184 384 736z" p-id="9113"></path></svg>