<?xml version="1.0" encoding="UTF-8" standalone="no"?>
<svg
   xmlns:dc="http://purl.org/dc/elements/1.1/"
   xmlns:cc="http://creativecommons.org/ns#"
   xmlns:rdf="http://www.w3.org/1999/02/22-rdf-syntax-ns#"
   xmlns:svg="http://www.w3.org/2000/svg"
   xmlns="http://www.w3.org/2000/svg"
   xmlns:sodipodi="http://sodipodi.sourceforge.net/DTD/sodipodi-0.dtd"
   xmlns:inkscape="http://www.inkscape.org/namespaces/inkscape"
   class="bi bi-sd-card"
   fill="currentColor"
   height="16"
   viewBox="0 0 16 16"
   width="16"
   version="1.1"
   id="svg6"
   sodipodi:docname="sdcard_no_exit_white.svg"
   inkscape:version="1.0.2-2 (e86c870879, 2021-01-15)">
  <metadata
     id="metadata12">
    <rdf:RDF>
      <cc:Work
         rdf:about="">
        <dc:format>image/svg+xml</dc:format>
        <dc:type
           rdf:resource="http://purl.org/dc/dcmitype/StillImage" />
        <dc:title></dc:title>
      </cc:Work>
    </rdf:RDF>
  </metadata>
  <defs
     id="defs10" />
  <sodipodi:namedview
     pagecolor="#ffffff"
     bordercolor="#666666"
     borderopacity="1"
     objecttolerance="10"
     gridtolerance="10"
     guidetolerance="10"
     inkscape:pageopacity="0"
     inkscape:pageshadow="2"
     inkscape:window-width="1920"
     inkscape:window-height="1017"
     id="namedview8"
     showgrid="false"
     inkscape:pagecheckerboard="true"
     inkscape:zoom="26.53125"
     inkscape:cx="8.5482997"
     inkscape:cy="6.7046939"
     inkscape:window-x="-8"
     inkscape:window-y="-8"
     inkscape:window-maximized="1"
     inkscape:current-layer="svg6"
     inkscape:document-rotation="0" />
  <path
     d="M 5.914,1.319199 H 12.5 A 1.5,1.2773852 0 0 1 14,2.5965842 V 13.667256 a 1.5,1.2773852 0 0 1 -1.5,1.277385 h -9 A 1.5,1.2773852 0 0 1 2,13.667256 V 4.6523227 C 2,4.3133899 2.158,3.9880824 2.44,3.7496372 L 4.853,1.6930471 A 1.5,1.2773852 0 0 1 5.914,1.319199 Z M 13,2.5965842 A 0.5,0.42579505 0 0 0 12.5,2.1707891 H 5.914 A 0.5,0.42579505 0 0 0 5.561,2.2951213 L 3.146,4.3517114 A 0.5,0.42579505 0 0 0 3,4.6523227 v 9.0149333 a 0.5,0.42579505 0 0 0 0.5,0.425795 h 9 A 0.5,0.42579505 0 0 0 13,13.667256 Z"
     fill-rule="evenodd"
     id="path4"
     style="fill:#ffffff;stroke-width:0.922816" />
  <path
     id="path834"
     style="fill:#ff0000;stroke:#ffffff"
     d="M 10.787109,4.8242188 10.275391,5.0488281 C 9.9768667,5.6961388 9.7036484,6.3544627 9.4140625,7.0058594 9.1285477,7.6340217 8.8200016,8.2513191 8.4941406,8.859375 8.3491792,8.6542062 8.2039482,8.449861 8.0488281,8.2519531 7.5903488,7.667877 7.1172166,7.0940844 6.6445312,6.5214844 6.4302823,6.2604295 6.4781239,6.321894 6.2792969,6.0683594 6.1612875,5.9178796 6.0397776,5.7668804 5.9394531,5.6035156 5.9285346,5.5857364 5.9195901,5.5674377 5.9101562,5.5488281 L 5.4238281,5.8222656 c 0.01203,0.019451 0.02155,0.04021 0.035156,0.058594 0.1163237,0.1571736 0.2467092,0.3063901 0.3710937,0.4570312 0.2687851,0.3255238 0.084761,0.1044715 0.3769531,0.4472656 0.4809207,0.5660133 0.9568961,1.1368273 1.4160157,1.7207032 0.2150177,0.2735405 0.4151211,0.5560033 0.6074219,0.8457031 -0.0076,0.013444 -0.013859,0.027586 -0.021484,0.041016 -0.2707934,0.4769364 -0.3444492,0.5885597 -0.6230469,1.0429689 -0.3463824,0.553164 -0.7063528,1.095347 -1.0820313,1.628906 -0.076107,0.117354 -0.1691065,0.22515 -0.2460937,0.341797 -0.072823,0.110337 0.013336,-0.0094 -0.050781,0.07813 -0.02985,0.04529 -0.064029,0.09382 -0.1074218,0.126953 -0.029547,0.0519 -0.065008,0.09704 -0.1015625,0.144531 -0.033334,0.05973 -0.087736,0.106901 -0.1425781,0.146485 -0.032529,0.0092 -0.052484,0.03527 -0.078125,0.05469 0.2180346,-0.126325 0.1570875,-0.09152 0.2011718,-0.117187 l -0.3730468,0.294922 c 0.042056,-0.01529 0.082843,-0.03096 0.1210937,-0.05469 0.2306066,-0.101107 0.4468904,-0.23687 0.6484375,-0.386719 0.051496,-0.04804 0.099992,-0.09734 0.1367188,-0.158203 0.035137,-0.04658 0.065842,-0.09771 0.1074218,-0.138672 0.035661,-0.04342 0.072051,-0.08534 0.099609,-0.134765 0.086622,-0.139521 0.1833116,-0.272906 0.2734375,-0.410157 0.3531666,-0.526621 0.6910834,-1.063034 1.0195313,-1.605468 0.1279273,-0.215286 0.2455842,-0.4360408 0.3710937,-0.652344 0.1203159,0.187955 0.2428169,0.3750136 0.3574219,0.566406 0.2140968,0.366865 0.4269797,0.734841 0.6542968,1.09375 0.1382721,0.222748 0.2836241,0.440598 0.4296876,0.658203 0.07325,0.105375 0.1564698,0.2036 0.2304692,0.308594 0.06729,0.09904 0.143595,0.190551 0.216796,0.285156 0.05446,0.07247 0.116498,0.138236 0.167969,0.212891 0.03829,0.05777 0.08166,0.11399 0.125,0.167969 0.03191,0.0522 0.06989,0.09934 0.103516,0.15039 0.05813,0.08286 0.105971,0.172502 0.160156,0.257813 l 0.480469,-0.28125 c -0.05593,-0.08425 -0.102069,-0.173653 -0.158203,-0.257813 -0.03401,-0.05297 -0.0722,-0.104787 -0.105469,-0.158203 -0.04225,-0.0531 -0.08565,-0.103265 -0.123047,-0.160156 -0.05145,-0.07624 -0.116233,-0.143538 -0.171875,-0.216797 -0.0742,-0.09253 -0.150528,-0.18263 -0.216797,-0.28125 -0.07329,-0.10593 -0.15677,-0.204078 -0.234375,-0.306641 C 10.145567,11.420619 9.9949629,11.206708 9.8535156,10.986328 9.6260423,10.627746 9.4060095,10.264484 9.1875,9.9003906 9.0196121,9.62941 8.8455201,9.3629246 8.6660156,9.0996094 8.7571802,8.9368152 8.8555328,8.7782169 8.9433594,8.6132812 9.1696634,8.1882896 9.3461541,7.8287887 9.5546875,7.3964844 9.6480743,7.202887 9.7398882,7.0086455 9.8320312,6.8144531 9.989644,6.4722966 10.144106,6.1287964 10.302734,5.7871094 c 0.134501,-0.2897176 0.269048,-0.5834338 0.423828,-0.8632813 0.01886,-0.034105 0.04052,-0.066171 0.06055,-0.099609 z" />
</svg>
