<?xml version="1.0" encoding="UTF-8" standalone="no"?>
<svg
   xmlns:dc="http://purl.org/dc/elements/1.1/"
   xmlns:cc="http://creativecommons.org/ns#"
   xmlns:rdf="http://www.w3.org/1999/02/22-rdf-syntax-ns#"
   xmlns:svg="http://www.w3.org/2000/svg"
   xmlns="http://www.w3.org/2000/svg"
   xmlns:sodipodi="http://sodipodi.sourceforge.net/DTD/sodipodi-0.dtd"
   xmlns:inkscape="http://www.inkscape.org/namespaces/inkscape"
   class="bi bi-sd-card"
   fill="currentColor"
   height="16"
   viewBox="0 0 16 16"
   width="16"
   version="1.1"
   id="svg6"
   sodipodi:docname="sdcard_white.svg"
   inkscape:version="1.0.2-2 (e86c870879, 2021-01-15)">
  <metadata
     id="metadata12">
    <rdf:RDF>
      <cc:Work
         rdf:about="">
        <dc:format>image/svg+xml</dc:format>
        <dc:type
           rdf:resource="http://purl.org/dc/dcmitype/StillImage" />
        <dc:title></dc:title>
      </cc:Work>
    </rdf:RDF>
  </metadata>
  <defs
     id="defs10" />
  <sodipodi:namedview
     pagecolor="#ffffff"
     bordercolor="#666666"
     borderopacity="1"
     objecttolerance="10"
     gridtolerance="10"
     guidetolerance="10"
     inkscape:pageopacity="0"
     inkscape:pageshadow="2"
     inkscape:window-width="1920"
     inkscape:window-height="1017"
     id="namedview8"
     showgrid="false"
     inkscape:pagecheckerboard="true"
     inkscape:zoom="26.53125"
     inkscape:cx="8.5482997"
     inkscape:cy="6.7046939"
     inkscape:window-x="-8"
     inkscape:window-y="-8"
     inkscape:window-maximized="1"
     inkscape:current-layer="svg6" />
  <path
     d="m 6.2876914,4.8191991 a 0.75,0.75 0 0 0 -1.5,0 v 2 a 0.75,0.75 0 0 0 1.5,0 z m 2,0 a 0.75,0.75 0 0 0 -1.5,0 v 2 a 0.75,0.75 0 0 0 1.5,0 z m 1.9999996,0 a 0.75,0.75 0 0 0 -1.4999996,0 v 2 a 0.75,0.75 0 0 0 1.4999996,0 z m 2,0 a 0.75,0.75 0 0 0 -1.5,0 v 2 a 0.75,0.75 0 0 0 1.5,0 z"
     id="path2"
     style="fill:#ffffff" />
  <path
     d="M 5.914,1.319199 H 12.5 A 1.5,1.2773852 0 0 1 14,2.5965842 V 13.667256 a 1.5,1.2773852 0 0 1 -1.5,1.277385 h -9 A 1.5,1.2773852 0 0 1 2,13.667256 V 4.6523227 C 2,4.3133899 2.158,3.9880824 2.44,3.7496372 L 4.853,1.6930471 A 1.5,1.2773852 0 0 1 5.914,1.319199 Z M 13,2.5965842 A 0.5,0.42579505 0 0 0 12.5,2.1707891 H 5.914 A 0.5,0.42579505 0 0 0 5.561,2.2951213 L 3.146,4.3517114 A 0.5,0.42579505 0 0 0 3,4.6523227 v 9.0149333 a 0.5,0.42579505 0 0 0 0.5,0.425795 h 9 A 0.5,0.42579505 0 0 0 13,13.667256 Z"
     fill-rule="evenodd"
     id="path4"
     style="fill:#ffffff;stroke-width:0.922816" />
</svg>
