<?xml version="1.0" standalone="no"?><!DOCTYPE svg PUBLIC "-//W3C//DTD SVG 1.1//EN" "http://www.w3.org/Graphics/SVG/1.1/DTD/svg11.dtd"><svg t="1618492468212" class="icon" viewBox="0 0 1024 1024" version="1.1" xmlns="http://www.w3.org/2000/svg" p-id="14747" width="200" height="200" xmlns:xlink="http://www.w3.org/1999/xlink"><defs><style type="text/css"></style></defs><path d="M331.52 166.272L254.634667 119.424a471.893333 471.893333 0 0 0-135.253334 135.253333l46.848 76.8a42.666667 42.666667 0 0 1-26.368 63.701334l-87.466666 21.205333a471.381333 471.381333 0 0 0 0 191.232l87.466666 21.248a42.666667 42.666667 0 0 1 26.368 63.616l-46.848 76.842667a471.893333 471.893333 0 0 0 135.253334 135.253333l76.8-46.848a42.666667 42.666667 0 0 1 63.701333 26.368l21.205333 87.466667a471.424 471.424 0 0 0 191.232 0l21.248-87.466667a42.666667 42.666667 0 0 1 63.616-26.368l76.842667 46.848a471.850667 471.850667 0 0 0 135.253333-135.253333l-46.848-76.8a42.666667 42.666667 0 0 1 26.368-63.701334l87.466667-21.205333a471.466667 471.466667 0 0 0 0-191.232l-87.466667-21.205333a42.666667 42.666667 0 0 1-26.368-63.701334l46.848-76.8a471.893333 471.893333 0 0 0-135.253333-135.253333l-76.8 46.848a42.666667 42.666667 0 0 1-63.701333-26.368l-21.205334-87.466667a471.424 471.424 0 0 0-191.232 0l-21.205333 87.466667a42.666667 42.666667 0 0 1-63.701333 26.368zM512 682.666667a170.666667 170.666667 0 1 1 0-341.333334 170.666667 170.666667 0 0 1 0 341.333334z" p-id="14748" fill="#000000"></path></svg>