<?xml version="1.0" encoding="UTF-8" standalone="no"?>
<svg
   xmlns:dc="http://purl.org/dc/elements/1.1/"
   xmlns:cc="http://creativecommons.org/ns#"
   xmlns:rdf="http://www.w3.org/1999/02/22-rdf-syntax-ns#"
   xmlns:svg="http://www.w3.org/2000/svg"
   xmlns="http://www.w3.org/2000/svg"
   xmlns:sodipodi="http://sodipodi.sourceforge.net/DTD/sodipodi-0.dtd"
   xmlns:inkscape="http://www.inkscape.org/namespaces/inkscape"
   t="1618110147518"
   class="icon"
   viewBox="0 0 1024 1024"
   version="1.1"
   p-id="11354"
   width="200"
   height="200"
   id="svg12"
   sodipodi:docname="time.svg"
   inkscape:version="1.0.2-2 (e86c870879, 2021-01-15)">
  <metadata
     id="metadata16">
    <rdf:RDF>
      <cc:Work
         rdf:about="">
        <dc:format>image/svg+xml</dc:format>
        <dc:type
           rdf:resource="http://purl.org/dc/dcmitype/StillImage" />
      </cc:Work>
    </rdf:RDF>
  </metadata>
  <sodipodi:namedview
     pagecolor="#ffffff"
     bordercolor="#666666"
     borderopacity="1"
     objecttolerance="10"
     gridtolerance="10"
     guidetolerance="10"
     inkscape:pageopacity="0"
     inkscape:pageshadow="2"
     inkscape:window-width="1600"
     inkscape:window-height="961"
     id="namedview14"
     showgrid="false"
     inkscape:zoom="3.675"
     inkscape:cx="100"
     inkscape:cy="100"
     inkscape:window-x="-8"
     inkscape:window-y="-8"
     inkscape:window-maximized="1"
     inkscape:current-layer="svg12" />
  <defs
     id="defs4">
    <style
       type="text/css"
       id="style2" />
  </defs>
  <path
     d="M512 938.666667C276.352 938.666667 85.333333 747.648 85.333333 512S276.352 85.333333 512 85.333333s426.666667 191.018667 426.666667 426.666667-191.018667 426.666667-426.666667 426.666667z m0-85.333334a341.333333 341.333333 0 1 0 0-682.666666 341.333333 341.333333 0 0 0 0 682.666666z"
     fill="#595959"
     p-id="11355"
     id="path6"
     style="fill:#000000" />
  <path
     d="M469.333333 298.666667m42.666667 0l0 0q42.666667 0 42.666667 42.666666l0 213.333334q0 42.666667-42.666667 42.666666l0 0q-42.666667 0-42.666667-42.666666l0-213.333334q0-42.666667 42.666667-42.666666Z"
     fill="#595959"
     p-id="11356"
     id="path8"
     style="fill:#000000" />
  <path
     d="M768 512m0 42.666667l0 0q0 42.666667-42.666667 42.666666l-213.333333 0q-42.666667 0-42.666667-42.666666l0 0q0-42.666667 42.666667-42.666667l213.333333 0q42.666667 0 42.666667 42.666667Z"
     fill="#595959"
     p-id="11357"
     id="path10"
     style="fill:#000000" />
</svg>
