<?xml version="1.0" encoding="UTF-8"?>
<!DOCTYPE svg PUBLIC "-//W3C//DTD SVG 1.1//EN" "http://www.w3.org/Graphics/SVG/1.1/DTD/svg11.dtd">
<svg xmlns="http://www.w3.org/2000/svg" version="1.1" width="512px" height="512px" style="shape-rendering:geometricPrecision; text-rendering:geometricPrecision; image-rendering:optimizeQuality; fill-rule:evenodd; clip-rule:evenodd" xmlns:xlink="http://www.w3.org/1999/xlink">
<g><path style="opacity:0.959" fill="#000000" d="M 184.5,10.5 C 231.835,10.3333 279.168,10.5 326.5,11C 330,12.5 332.5,15 334,18.5C 334.5,57.8319 334.667,97.1653 334.5,136.5C 350.837,136.333 367.17,136.5 383.5,137C 389.553,138.053 393.387,141.553 395,147.5C 395.979,246.521 395.646,345.521 394,444.5C 386.638,475.195 367.471,493.695 336.5,500C 282.167,500.667 227.833,500.667 173.5,500C 140.105,492.271 120.938,471.438 116,437.5C 115.333,340.5 115.333,243.5 116,146.5C 117.442,142.725 119.942,139.892 123.5,138C 141.164,137.5 158.83,137.333 176.5,137.5C 176.333,97.8319 176.5,58.1653 177,18.5C 178.69,14.9791 181.19,12.3124 184.5,10.5 Z M 201.5,35.5 C 237.5,35.5 273.5,35.5 309.5,35.5C 309.5,69.1667 309.5,102.833 309.5,136.5C 273.5,136.5 237.5,136.5 201.5,136.5C 201.5,102.833 201.5,69.1667 201.5,35.5 Z M 141.5,162.5 C 217.5,162.5 293.5,162.5 369.5,162.5C 369.667,254.501 369.5,346.501 369,438.5C 364.673,456.826 353.507,468.659 335.5,474C 308.867,475.14 282.2,475.64 255.5,475.5C 228.8,475.64 202.133,475.14 175.5,474C 157.042,468.542 145.876,456.375 142,437.5C 141.5,345.834 141.333,254.167 141.5,162.5 Z"/></g>
<g><path style="opacity:0.931" fill="#000000" d="M 229.5,59.5 C 237.807,58.3964 243.307,61.7298 246,69.5C 246.667,81.1667 246.667,92.8333 246,104.5C 239.583,114.852 231.916,115.852 223,107.5C 222.027,105.608 221.36,103.608 221,101.5C 220.113,89.7838 220.446,78.1171 222,66.5C 224.015,63.5883 226.515,61.255 229.5,59.5 Z"/></g>
<g><path style="opacity:0.931" fill="#000000" d="M 273.5,59.5 C 278.377,58.8124 282.71,59.9791 286.5,63C 288.774,65.3443 289.941,68.1776 290,71.5C 290.909,82.892 290.576,94.2253 289,105.5C 283.628,113.849 276.795,115.349 268.5,110C 267.333,108.167 266.167,106.333 265,104.5C 264.333,92.5 264.333,80.5 265,68.5C 266.688,64.3148 269.521,61.3148 273.5,59.5 Z"/></g>
</svg>
