<?xml version="1.0" standalone="no"?><!DOCTYPE svg PUBLIC "-//W3C//DTD SVG 1.1//EN" "http://www.w3.org/Graphics/SVG/1.1/DTD/svg11.dtd"><svg t="1618109922065" class="icon" viewBox="0 0 1024 1024" version="1.1" xmlns="http://www.w3.org/2000/svg" p-id="8412" xmlns:xlink="http://www.w3.org/1999/xlink" width="200" height="200"><defs><style type="text/css"></style></defs><path d="M512 42.666667l128 213.333333h-85.333333v314.922667l128-63.957334-0.042667-37.632H640V298.666667h170.666667v170.666666h-42.709334L768 559.701333l-213.333333 106.666667v66.261333a128 128 0 1 1-98.56 5.504L256 597.333333l-0.042667-96.768a85.333333 85.333333 0 1 1 85.376 0V554.666667l128 89.002666V256H384l128-213.333333z m0 768a42.666667 42.666667 0 1 0 0 85.333333 42.666667 42.666667 0 0 0 0-85.333333z" p-id="8413"></path></svg>