<?xml version="1.0" standalone="no"?><!DOCTYPE svg PUBLIC "-//W3C//DTD SVG 1.1//EN" "http://www.w3.org/Graphics/SVG/1.1/DTD/svg11.dtd"><svg t="1618109588490" class="icon" viewBox="0 0 1030 1024" version="1.1" xmlns="http://www.w3.org/2000/svg" p-id="8275" xmlns:xlink="http://www.w3.org/1999/xlink" width="201.171875" height="200"><defs><style type="text/css"></style></defs><path d="M658.832918 960.159601h-297.921862a85.120532 85.120532 0 0 1-85.120532-85.120532V343.035744A21.280133 21.280133 0 0 1 297.921862 321.755611h425.60266a21.280133 21.280133 0 0 1 21.280133 21.280133v531.15212a85.120532 85.120532 0 0 1-85.971737 85.971737z m-340.482128-595.843724v510.723192a42.560266 42.560266 0 0 0 42.560266 42.560266h297.921862a42.560266 42.560266 0 0 0 42.560266-42.560266v-510.723192z" p-id="8276"></path><path d="M649.044057 321.755611a21.280133 21.280133 0 0 1-21.280133-21.280133V108.954281h-234.081463V300.475478a21.280133 21.280133 0 0 1-42.560266 0V87.674148a21.280133 21.280133 0 0 1 21.280133-21.280133h276.641729a21.280133 21.280133 0 0 1 21.280133 21.280133v212.80133a21.280133 21.280133 0 0 1-21.280133 21.280133z" p-id="8277"></path></svg>