<?xml version="1.0" encoding="UTF-8" standalone="no"?>
<svg
   xmlns:dc="http://purl.org/dc/elements/1.1/"
   xmlns:cc="http://creativecommons.org/ns#"
   xmlns:rdf="http://www.w3.org/1999/02/22-rdf-syntax-ns#"
   xmlns:svg="http://www.w3.org/2000/svg"
   xmlns="http://www.w3.org/2000/svg"
   xmlns:sodipodi="http://sodipodi.sourceforge.net/DTD/sodipodi-0.dtd"
   xmlns:inkscape="http://www.inkscape.org/namespaces/inkscape"
   t="1618105107940"
   class="icon"
   viewBox="0 0 1024 1024"
   version="1.1"
   p-id="3507"
   width="200"
   height="200"
   id="svg12"
   sodipodi:docname="wifi_white.svg"
   inkscape:version="1.0.2-2 (e86c870879, 2021-01-15)">
  <metadata
     id="metadata16">
    <rdf:RDF>
      <cc:Work
         rdf:about="">
        <dc:format>image/svg+xml</dc:format>
        <dc:type
           rdf:resource="http://purl.org/dc/dcmitype/StillImage" />
      </cc:Work>
    </rdf:RDF>
  </metadata>
  <sodipodi:namedview
     pagecolor="#ffffff"
     bordercolor="#666666"
     borderopacity="1"
     objecttolerance="10"
     gridtolerance="10"
     guidetolerance="10"
     inkscape:pageopacity="0"
     inkscape:pageshadow="2"
     inkscape:window-width="1920"
     inkscape:window-height="1017"
     id="namedview14"
     showgrid="false"
     inkscape:zoom="2.1225"
     inkscape:cx="10.119638"
     inkscape:cy="143.50213"
     inkscape:window-x="-8"
     inkscape:window-y="-8"
     inkscape:window-maximized="1"
     inkscape:current-layer="svg12" />
  <defs
     id="defs4">
    <style
       type="text/css"
       id="style2" />
  </defs>
  <path
     d="M512.2 192 512.2 192c-159.8 0-311.4 59.8-427.8 168.2L64 379.2l19.8 19.6 64.6 64 18.6 18.4 19.2-17.6c89-81.8 204.6-127 325.6-127 121 0 236.8 45.2 325.6 127l19.2 17.6 18.6-18.4 64.6-64 19.8-19.6-20.4-19C823.2 251.8 671.4 192 512.2 192z"
     p-id="3508"
     id="path6"
     style="fill:#ffffff" />
  <path
     d="M794.8 512.8c-77.6-70.2-177.8-108.8-282.2-108.8l-0.2 0-0.6 0-17 0-0.2 0.4c-98.4 4-192 42.2-265.2 108.4l-21 19 20.2 20 65.4 64.8 18.2 18 19.2-16.8c50.6-44.4 114.8-69 180.6-69 66.2 0 130.4 24.6 181 69l19.2 16.8 18.2-18 65.4-64.8 20.2-20L794.8 512.8z"
     p-id="3509"
     id="path8"
     style="fill:#ffffff" />
  <path
     d="M512.4 832l19.2-19 105.6-104.4 21.2-21-23.2-19c-30.8-22.8-64.8-40-123-40-58 0-89.8 18.8-123 40l-23 19 21.2 21 105.6 104.4L512.4 832z"
     p-id="3510"
     id="path10"
     style="fill:#ffffff" />
</svg>
