<?xml version="1.0" standalone="no"?><!DOCTYPE svg PUBLIC "-//W3C//DTD SVG 1.1//EN" "http://www.w3.org/Graphics/SVG/1.1/DTD/svg11.dtd"><svg t="1618106688518" class="icon" viewBox="0 0 1244 1024" version="1.1" xmlns="http://www.w3.org/2000/svg" p-id="1891" xmlns:xlink="http://www.w3.org/1999/xlink" width="242.96875" height="200"><defs><style type="text/css"></style></defs><path d="M1230.760661 331.307224a68.845953 68.845953 0 0 0-56.369016-29.632724h-144.821584V192.055701a79.54047 79.54047 0 0 0-79.763272-79.54047H591.763272a32.751958 32.751958 0 0 1-32.751958-32.751959A79.54047 79.54047 0 0 0 479.470844 0H228.818103A79.763272 79.763272 0 0 0 149.277633 79.763272a32.751958 32.751958 0 0 1-32.751959 32.751959H79.763272A79.763272 79.763272 0 0 0 0 192.055701v557.006092A54.363795 54.363795 0 0 0 42.778068 802.088773L12.699739 880.069626a109.173194 109.173194 0 0 0 4.010444 89.120975 97.81027 97.81027 0 0 0 61.27067 51.24456 119.644909 119.644909 0 0 0 28.073107 3.564839H935.770235A100.038294 100.038294 0 0 0 1028.233246 958.050479l210.548303-563.690166a68.623151 68.623151 0 0 0-8.020888-63.053089zM47.234117 751.958225a5.570061 5.570061 0 0 1 0-2.005222 2.896432 2.896432 0 0 1 0-1.336815v-557.006092a32.751958 32.751958 0 0 1 32.529155-32.306354h36.762402A79.763272 79.763272 0 0 0 196.066144 79.763272a32.751958 32.751958 0 0 1 32.751959-32.97476h250.652741A32.751958 32.751958 0 0 1 512.445605 79.763272a79.986075 79.986075 0 0 0 79.54047 79.54047h357.820714a32.529156 32.529156 0 0 1 32.751958 32.751959v109.618799h-668.407311a117.862489 117.862489 0 0 0-111.401218 77.089643L81.768494 701.827676l-18.938207 49.684944a7.575283 7.575283 0 0 1-7.35248 5.347258h-1.78242a8.24369 8.24369 0 0 1-6.46127-4.901653zM1194.889469 378.764143l-210.548303 563.690165A53.02698 53.02698 0 0 1 935.770235 976.097476H106.05396a62.384682 62.384682 0 0 1-15.596171-2.005222 50.353351 50.353351 0 0 1-31.860748-26.959095 62.830287 62.830287 0 0 1-2.450827-49.907746l44.560487-114.966057 5.347259-13.813751 3.342037-8.689295 136.577893-364.950392a71.29678 71.29678 0 0 1 66.840731-46.120104h861.577024a22.280244 22.280244 0 0 1 18.046997 9.357702 22.280244 22.280244 0 0 1 2.450827 20.720627z" p-id="1892"></path><path d="M61.716275 753.740644a6.906876 6.906876 0 0 0 0-2.228024l18.938207-49.684944z" p-id="1893"></path></svg>