<?xml version="1.0" standalone="no"?><!DOCTYPE svg PUBLIC "-//W3C//DTD SVG 1.1//EN" "http://www.w3.org/Graphics/SVG/1.1/DTD/svg11.dtd"><svg t="1618105750907" class="icon" viewBox="0 0 1024 1024" version="1.1" xmlns="http://www.w3.org/2000/svg" p-id="11506" xmlns:xlink="http://www.w3.org/1999/xlink" width="200" height="200"><defs><style type="text/css"></style></defs><path d="M789.333333 810.666667h-128c-25.6 0-42.666667-17.066667-42.666666-42.666667s17.066667-42.666667 42.666666-42.666667h128c12.8 0 21.333333-8.533333 21.333334-21.333333v-384c0-12.8-8.533333-21.333333-21.333334-21.333333h-128c-25.6 0-42.666667-17.066667-42.666666-42.666667s17.066667-42.666667 42.666666-42.666667h128C849.066667 213.333333 896 260.266667 896 320v384c0 59.733333-46.933333 106.666667-106.666667 106.666667zM234.666667 810.666667h-128C46.933333 810.666667 0 763.733333 0 704v-384C0 260.266667 46.933333 213.333333 106.666667 213.333333h128c25.6 0 42.666667 17.066667 42.666666 42.666667s-17.066667 42.666667-42.666666 42.666667h-128c-12.8 0-21.333333 8.533333-21.333334 21.333333v384c0 12.8 8.533333 21.333333 21.333334 21.333333h128c25.6 0 42.666667 17.066667 42.666666 42.666667s-17.066667 42.666667-42.666666 42.666667zM981.333333 640h-42.666666V384h42.666666c25.6 0 42.666667 17.066667 42.666667 42.666667v170.666666c0 25.6-17.066667 42.666667-42.666667 42.666667z" p-id="11507"></path><path d="M448 593.066667c-25.6 0-42.666667-17.066667-42.666667-42.666667V315.733333c0-25.6 17.066667-42.666667 42.666667-42.666666s42.666667 17.066667 42.666667 42.666666v234.666667c0 21.333333-17.066667 42.666667-42.666667 42.666667zM448 742.4c-25.6 0-42.666667-17.066667-42.666667-42.666667v-21.333333c0-25.6 17.066667-42.666667 42.666667-42.666667s42.666667 17.066667 42.666667 42.666667v21.333333c0 21.333333-17.066667 42.666667-42.666667 42.666667z" p-id="11508"></path></svg>